<svg width="1920" height="1080" viewBox="0 0 1920 1080"
     fill="none" xmlns="http://www.w3.org/2000/svg">
    <path
        d="M1313.98 834.094C1347.6 838.941 1390.52 852.254 1438.01 885C1386.51 885 1326.24 872.305 1313.98 834.094C1230.35 822.034 1204.33 862.378 1308.88 786.2C1318.37 779.279 1325.88 772.59 1331.6 766.131C1334.38 761.935 1337.48 757.604 1340.92 753.134C1342.34 750.539 1343.46 747.985 1344.3 745.473C1293.32 741.279 1224.16 710.986 1132 636C1221.39 647.995 1364.73 684.616 1344.3 745.473C1345.16 745.544 1346.02 745.607 1346.87 745.663C1371.74 715.475 1411.28 679.261 1470 636C1463.42 687.228 1429.46 751.103 1346.87 745.663C1344.78 748.196 1342.8 750.686 1340.92 753.134C1338.61 757.357 1335.53 761.689 1331.6 766.131C1325.66 775.073 1321.18 783.398 1317.99 791.143C1367.77 818.428 1376.3 828.164 1374.04 829.603L1317.63 792.03C1310.97 808.625 1310.28 822.528 1313.98 834.094Z"
        fill="#4EBC98" fill-opacity="0.8"/>
    <path
        d="M1313.98 849.094C1347.6 853.941 1390.52 867.254 1438.01 900C1386.51 900 1326.24 887.305 1313.98 849.094C1230.35 837.034 1204.33 877.378 1308.88 801.2C1318.37 794.279 1325.88 787.59 1331.6 781.131C1334.38 776.935 1337.48 772.604 1340.92 768.134C1342.34 765.539 1343.46 762.985 1344.3 760.473C1293.32 756.279 1224.16 725.986 1132 651C1221.39 662.995 1364.73 699.616 1344.3 760.473C1345.16 760.544 1346.02 760.607 1346.87 760.663C1371.74 730.475 1411.28 694.261 1470 651C1463.42 702.228 1429.46 766.103 1346.87 760.663C1344.78 763.196 1342.8 765.686 1340.92 768.134C1338.61 772.357 1335.53 776.689 1331.6 781.131C1325.66 790.073 1321.18 798.398 1317.99 806.143C1367.77 833.428 1376.3 843.164 1374.04 844.603L1317.63 807.03C1310.97 823.625 1310.28 837.528 1313.98 849.094Z"
        fill="#E3EBE8" fill-opacity="0.8"/>
    <path
        d="M72.3501 913.69C148.331 928.193 245.349 968.024 352.701 1066C236.287 1066 100.047 1028.02 72.3501 913.69C-116.692 877.606 -175.5 998.315 60.8053 770.392C82.2719 749.687 99.2368 729.672 112.159 710.348C118.45 697.795 125.462 684.836 133.232 671.46C136.434 663.696 138.971 656.056 140.877 648.54C25.6302 635.991 -130.695 545.356 -339 321C-136.958 356.889 187.049 466.458 140.877 648.54C142.825 648.752 144.76 648.941 146.684 649.109C202.898 558.787 292.265 450.434 425 321C410.126 474.272 333.372 665.384 146.684 649.109C141.969 656.686 137.487 664.135 133.232 671.46C128.02 684.096 121.046 697.058 112.159 710.348C98.7507 737.102 88.6183 762.011 81.4063 785.182C193.918 866.82 213.201 895.949 208.102 900.255L80.5907 787.836C65.5273 837.49 63.9669 879.087 72.3501 913.69Z"
        fill="#4EBC98" fill-opacity="0.7"/>
    <path
        d="M72.3501 939.69C148.331 954.193 245.349 994.024 352.701 1092C236.287 1092 100.047 1054.02 72.3501 939.69C-116.692 903.606 -175.5 1024.31 60.8053 796.392C82.2719 775.687 99.2368 755.672 112.159 736.348C118.45 723.795 125.462 710.836 133.232 697.46C136.434 689.696 138.971 682.056 140.877 674.54C25.6302 661.991 -130.695 571.356 -339 347C-136.958 382.889 187.049 492.458 140.877 674.54C142.825 674.752 144.76 674.941 146.684 675.109C202.898 584.787 292.265 476.434 425 347C410.126 500.272 333.372 691.384 146.684 675.109C141.969 682.686 137.487 690.135 133.232 697.46C128.02 710.096 121.046 723.058 112.159 736.348C98.7507 763.102 88.6183 788.011 81.4063 811.182C193.918 892.82 213.201 921.949 208.102 926.255L80.5907 813.836C65.5273 863.49 63.9669 905.087 72.3501 939.69Z"
        fill="#E3EBE8" fill-opacity="0.7"/>
    <path
        d="M780 814.708C948.271 837.017 1163.13 898.288 1400.88 1049C1143.06 1049 841.34 990.57 780 814.708C361.337 759.203 231.096 944.883 754.433 594.28C801.974 562.43 839.545 531.642 868.163 501.916C882.096 482.607 897.625 462.673 914.833 442.097C921.925 430.155 927.544 418.402 931.765 406.84C676.532 387.536 330.325 248.117 -131 -97C316.454 -41.7943 1034.02 126.751 931.765 406.84C936.078 407.166 940.365 407.458 944.625 407.716C1069.12 268.777 1267.04 102.103 1561 -97C1528.06 138.771 1358.07 432.75 944.625 407.716C934.182 419.37 924.256 430.83 914.833 442.097C903.291 461.534 887.844 481.474 868.163 501.916C838.469 543.071 816.029 581.388 800.057 617.03C1049.23 742.611 1091.94 787.418 1080.64 794.041L798.251 621.113C764.89 697.493 761.435 761.48 780 814.708Z"
        fill="#4EBC98" fill-opacity="0.8"/>
    <path
        d="M755 771.708C923.271 794.017 1138.13 855.288 1375.88 1006C1118.06 1006 816.34 947.57 755 771.708C336.337 716.203 206.096 901.883 729.433 551.28C776.974 519.43 814.545 488.642 843.163 458.916C857.096 439.607 872.625 419.673 889.833 399.097C896.925 387.155 902.544 375.402 906.765 363.84C651.532 344.536 305.325 205.117 -156 -140C291.454 -84.7943 1009.02 83.7513 906.765 363.84C911.078 364.166 915.365 364.458 919.625 364.716C1044.12 225.777 1242.04 59.1032 1536 -140C1503.06 95.7714 1333.07 389.75 919.625 364.716C909.182 376.37 899.256 387.83 889.833 399.097C878.291 418.534 862.844 438.474 843.163 458.916C813.469 500.071 791.029 538.388 775.057 574.03C1024.23 699.611 1066.94 744.418 1055.64 751.041L773.251 578.113C739.89 654.493 736.435 718.48 755 771.708Z"
        fill="#E3EBE8" fill-opacity="0.8"/>
</svg>
